<?xml version="1.0" encoding="UTF-8"?>
<svg version="1.1" xmlns="http://www.w3.org/2000/svg" width="1000" height="1000">
<path d="M0 0 C102.63 0 205.26 0 311 0 C311 65.76206605 311 65.76206605 310.79807091 91.2514565 C310.76846586 95.05079971 310.74140506 98.85016135 310.71398926 102.64952087 C310.6625221 109.73437071 310.60901139 116.81920331 310.5546174 123.90403122 C310.49244498 132.01643165 310.43277772 140.12885004 310.37324238 148.24127018 C310.25146722 164.827534 310.12647121 181.41377122 310 198 C328.48 198 346.96 198 366 198 C366.02227897 228.89476542 366.04065014 259.78952272 366.05106533 290.68429372 C366.05231521 294.37815221 366.05360961 298.07201068 366.05493164 301.76586914 C366.05532511 302.86838546 366.05532511 302.86838546 366.05572652 303.99317484 C366.05948502 314.26719874 366.06563193 324.54121872 366.07373433 334.81524007 C366.08769733 352.52396155 366.09693847 370.23267892 366.09765625 387.94140625 C366.09769482 388.62955542 366.09773339 389.31770458 366.09777313 390.02670676 C366.09988768 446.4067614 366.09988768 446.4067614 365.77294922 473.99560547 C365.76319132 474.81911507 365.75343342 475.64262467 365.74337983 476.49108911 C365.56154513 491.32844493 365.27766291 506.16418869 365 521 C329.06053869 521.02313968 293.12107874 521.04063429 257.18161146 521.05106533 C252.8907683 521.0523153 248.59992516 521.05360969 244.30908203 521.05493164 C243.45523349 521.05519395 242.60138495 521.05545626 241.72166221 521.05572652 C228.08848172 521.06001947 214.45530567 521.06786982 200.82212777 521.0771528 C186.72147597 521.08667042 172.6208264 521.09209277 158.52017152 521.09408849 C150.64718809 521.09531036 142.77421377 521.09814405 134.90123367 521.10573006 C89.5928997 521.14813284 44.30256197 520.72508839 -1 520 C-1.03053557 472.86080849 -1.05069183 425.72161552 -1.06185675 378.58241546 C-1.06249796 375.88360556 -1.06315683 373.18479566 -1.06381607 370.48598576 C-1.10111942 215.29631015 -1.10111942 215.29631015 -0.77734375 139.28125 C-0.77243966 138.12033278 -0.76753558 136.95941555 -0.76248288 135.76331902 C-0.56976748 90.50855555 -0.27139033 45.25433778 0 0 Z M57 57 C57 106.17 57 155.34 57 206 C121.35 206 185.7 206 252 206 C252 156.83 252 107.66 252 57 C187.65 57 123.3 57 57 57 Z M57 264 C57 329.67 57 395.34 57 463 C139.83 463 222.66 463 308 463 C308 397.33 308 331.66 308 264 C225.17 264 142.34 264 57 264 Z " fill="#FFFFFF" transform="translate(45,37)"/>
<path d="M0 0 C136.95 0 273.9 0 415 0 C415 19.14 415 38.28 415 58 C297.19 58 179.38 58 58 58 C58 198.58 58 339.16 58 484 C162.28 484 266.56 484 374 484 C374 414.37 374 344.74 374 273 C312.29 273 250.58 273 187 273 C187 253.86 187 234.72 187 215 C217.50649488 214.97796263 248.01298316 214.95949536 278.51948355 214.94893467 C282.11943436 214.94768393 285.71938515 214.94638961 289.31933594 214.94506836 C290.03603424 214.94480605 290.75273254 214.94454374 291.49114898 214.94427348 C303.10233086 214.93991982 314.71350779 214.93203394 326.32468674 214.9228472 C338.23503644 214.91350222 350.14538356 214.90794259 362.05573678 214.90591151 C368.74718242 214.90466141 375.43861614 214.90152618 382.13005829 214.89426994 C388.423784 214.88750007 394.71749384 214.88538503 401.01122284 214.88689232 C403.32517584 214.88661643 405.63912936 214.88461703 407.95307922 214.88079453 C411.1046238 214.87584223 414.25610792 214.87700747 417.40765381 214.87974548 C418.32983003 214.87683264 419.25200626 214.8739198 420.20212722 214.87091869 C421.04610635 214.87290974 421.89008548 214.87490079 422.75963974 214.87695217 C423.48718389 214.87657245 424.21472805 214.87619273 424.96431899 214.8758015 C427 215 427 215 431 216 C431 304.44 431 392.88 431 484 C431.66 484 432.32 484 433 484 C433 502.81 433 521.62 433 541 C430.02361748 542.48819126 427.34522076 542.12401196 424.02281761 542.12304783 C423.29255402 542.12420157 422.56229043 542.12535532 421.80989764 542.12654402 C419.33893079 542.12921123 416.8680278 542.12468867 414.39706421 542.12025452 C412.62186162 542.12069159 410.84665909 542.12156787 409.07145691 542.12284851 C404.1639257 542.12510195 399.25641611 542.12106385 394.34888765 542.11607273 C388.98654195 542.11172305 383.62419734 542.11316622 378.26185036 542.11389065 C367.84057764 542.11442351 357.41931349 542.10979448 346.99804298 542.10338932 C334.95027324 542.09620532 322.90250869 542.09539545 310.85473633 542.09460449 C279.02815619 542.0893485 247.20157797 542.07538747 215.375 542.0625 C144.30125 542.041875 73.2275 542.02125 0 542 C0 363.14 0 184.28 0 0 Z " fill="#FFFFFF" transform="translate(464,365)"/>
</svg>
