<?xml version="1.0" encoding="UTF-8"?>
<svg version="1.1" xmlns="http://www.w3.org/2000/svg" width="1000" height="1000">
<path d="M0 0 C1.33696154 0.50852444 2.67448287 1.01557881 4.01246643 1.52140808 C5.08431277 1.92777528 5.08431277 1.92777528 6.17781258 2.34235191 C30.28183749 11.4138651 55.0242238 18.26172945 79.79305649 25.24940872 C86.08720635 27.02812786 92.37714701 28.82161013 98.66748047 30.61376953 C108.91743474 33.53243747 119.16948486 36.44357122 129.4230957 39.34936523 C143.6870715 43.3924769 157.94364177 47.46120849 172.19750977 51.53979492 C173.81426133 52.0023553 173.81426133 52.0023553 175.46367455 52.47426033 C179.66848255 53.67729607 183.87327142 54.88039859 188.07799816 56.0837183 C198.57618233 59.08791412 209.07613552 62.08590449 219.57641602 65.08276367 C220.40491688 65.31923992 221.23341774 65.55571617 222.08702469 65.79935837 C226.53787524 67.06974931 230.98876349 68.34000807 235.43969727 69.61010742 C236.64995094 73.89055059 236.1441973 76.688351 234.91674805 80.92919922 C234.55952667 82.18367355 234.2023053 83.43814789 233.83425903 84.7306366 C233.43480602 86.090287 233.03504902 87.44984813 232.63500977 88.80932617 C232.23148764 90.20959834 231.82890308 91.610141 231.42721558 93.01094055 C230.36903344 96.6906794 229.29708362 100.36627273 228.22253418 104.04125977 C227.3463986 107.04636089 226.48013249 110.05426336 225.61436653 113.06236553 C224.58286681 116.64563717 223.54709537 120.2276677 222.51000977 123.80932617 C222.31184788 124.49401159 222.11368599 125.17869701 221.9095192 125.88413048 C221.34911047 127.81648444 220.78535437 129.74786669 220.22143555 131.67919922 C219.74059006 133.3286982 219.74059006 133.3286982 219.25003052 135.01152039 C218.43969727 137.61010742 218.43969727 137.61010742 217.43969727 139.61010742 C210.5238939 138.98667892 204.17547087 137.26142179 197.52563477 135.30541992 C195.68075261 134.7712619 193.83587007 134.23710523 191.99097538 133.70299053 C189.99169324 133.12291159 187.99330343 132.53984869 185.99514771 131.9559021 C181.73931605 130.71223686 177.48123031 129.47642503 173.22265625 128.2421875 C171.71568164 127.80537878 170.2087084 127.36856534 168.70173645 126.93174744 C167.93606668 126.70982161 167.17039692 126.48789577 166.38152504 126.25924492 C163.98221712 125.56349366 161.58315219 124.86690955 159.18412781 124.17018127 C145.74010874 120.26735609 132.28457926 116.40524619 118.82641602 112.55151367 C116.70968709 111.94512138 114.59296753 111.3386964 112.47625732 110.73223877 C99.88234354 107.12417333 99.88234354 107.12417333 87.28729248 103.52008057 C82.30744644 102.09582997 77.32834004 100.6690192 72.34971046 99.24052238 C70.51582856 98.7148179 68.68169184 98.19000126 66.84726524 97.66620064 C54.64451177 94.18133965 42.52272075 90.49012837 30.43969727 86.61010742 C30.26660852 87.22324421 30.09351978 87.836381 29.91518593 88.46809769 C27.67285421 96.33154615 24.78496094 103.94442678 21.89672852 111.58666992 C21.36264107 113.00716464 20.82884791 114.42777004 20.29533386 115.84848022 C18.90255021 119.5549992 17.50582125 123.26001881 16.10821533 126.96472168 C14.67787353 130.75836549 13.25133712 134.55343959 11.82446289 138.34838867 C9.03322619 145.77035256 6.23781247 153.19073404 3.43969727 160.61010742 C5.32330708 161.40094292 7.20754626 162.19027947 9.09204102 162.97900391 C10.14125732 163.41873032 11.19047363 163.85845673 12.27148438 164.31150818 C16.94835584 166.22848218 21.68361444 167.96374865 26.43969727 169.67260742 C27.39956543 170.01984863 28.35943359 170.36708984 29.34838867 170.72485352 C34.99634554 172.75942011 40.66345031 174.71075667 46.37280273 176.56665039 C49.73631014 177.71102475 53.04364458 178.96846328 56.36157227 180.23901367 C66.91897136 184.2366925 77.62067402 187.8108987 88.31469727 191.42260742 C91.32548699 192.44088491 94.33601532 193.45991628 97.34597778 194.4806366 C99.2018082 195.10984792 101.0581335 195.73760197 102.91500854 196.36372375 C104.15868698 196.78502815 104.15868698 196.78502815 105.42749023 197.21484375 C106.15644501 197.4609993 106.88539978 197.70715485 107.63644409 197.96076965 C109.43969727 198.61010742 109.43969727 198.61010742 111.43969727 199.61010742 C111.79393511 209.35164824 109.3264711 217.14925528 105.82617188 226.17578125 C103.91844898 231.15568127 102.32638797 236.16689264 100.87719727 241.29760742 C99.11542712 247.51806544 97.04101396 253.50569975 94.64282227 259.51635742 C92.71193703 264.48149089 91.07454423 269.5411685 89.43969727 274.61010742 C88.44969727 274.61010742 87.45969727 274.61010742 86.43969727 274.61010742 C86.32972412 275.26527344 86.21975098 275.92043945 86.10644531 276.59545898 C85.25687166 280.4367389 84.02459273 284.12075509 82.77172852 287.84448242 C82.50076859 288.65731186 82.22980865 289.4701413 81.95063782 290.30760193 C81.05434253 292.99284696 80.15343363 295.67651706 79.25219727 298.36010742 C78.61717074 300.2576169 77.98224397 302.15515976 77.34741211 304.05273438 C71.69646787 320.92291832 65.94984042 337.76013504 60.18370056 354.59121704 C56.58732107 365.09238887 53.01426376 375.60149523 49.43969727 386.11010742 C45.54677326 397.55429831 41.65231664 408.99791969 37.73657227 420.43432617 C32.37762018 436.08640684 27.02308675 451.74029031 21.75793457 467.42422485 C21.27151516 468.87136385 20.78359744 470.31800053 20.29382324 471.76400757 C16.68793442 482.41866063 13.48584604 493.16933926 10.36474609 503.97509766 C8.29424303 511.13583116 6.16920242 518.2799331 4.03735352 525.42260742 C3.66568558 526.66823959 3.29401764 527.91387177 2.91108704 529.19725037 C1.96733513 532.35866434 1.0230684 535.51992384 0.07849121 538.68109131 C-0.901277 541.960648 -1.88015903 545.24046919 -2.85913086 548.52026367 C-4.75873484 554.88378002 -6.65917168 561.24704714 -8.56030273 567.61010742 C-12.1780492 566.85443014 -15.7931547 566.08675648 -19.40795898 565.31713867 C-20.41749634 565.10641724 -21.42703369 564.8956958 -22.46716309 564.67858887 C-36.44151939 561.68748793 -49.39652107 556.95784684 -62.06396484 550.38256836 C-69.29503626 546.64698646 -76.68224318 544.42770011 -84.48266602 542.20385742 C-98.86676032 538.08884245 -113.09435731 533.58285964 -127.29550171 528.87814331 C-133.65544107 526.77167235 -140.02005086 524.67939977 -146.38452148 522.58666992 C-147.02815203 522.37489798 -147.67178257 522.16312603 -148.33491707 521.94493675 C-161.11635122 517.7403333 -173.9266686 513.62931098 -186.74780273 509.54760742 C-204.21289727 503.98455949 -221.64537217 498.32822702 -239.06030273 492.61010742 C-256.53782444 486.87149117 -274.03317463 481.19540035 -291.56030273 475.61010742 C-310.25372983 469.65315512 -328.90857512 463.58504836 -347.54907227 457.46459961 C-363.86409621 452.10933877 -380.19948687 446.82373675 -396.56030273 441.61010742 C-415.25372983 435.65315512 -433.90857512 429.58504836 -452.54907227 423.46459961 C-468.86409621 418.10933877 -485.19948687 412.82373675 -501.56030273 407.61010742 C-520.25474088 401.65283293 -538.91061177 395.58444507 -557.55209351 389.46359253 C-574.80903254 383.79906651 -592.09164188 378.22172153 -609.39764404 372.70907593 C-629.6613514 366.25125168 -649.87323287 359.63908705 -670.07519531 352.99121094 C-681.87735892 349.10975139 -693.68237146 345.25429215 -705.56030273 341.61010742 C-706.61705233 337.68546562 -706.45642925 335.29848697 -705.17675781 331.45947266 C-704.84924026 330.45750351 -704.52172272 329.45553436 -704.1842804 328.42320251 C-703.81981308 327.34921707 -703.45534576 326.27523163 -703.07983398 325.16870117 C-702.71057297 324.05004166 -702.34131195 322.93138214 -701.96086121 321.77882385 C-700.77596178 318.19794788 -699.57464822 314.62282706 -698.37280273 311.04760742 C-697.58200137 308.66710915 -696.79227581 306.2862532 -696.00366211 303.9050293 C-694.2073347 298.48895151 -692.39938273 293.07688852 -690.58462524 287.66696167 C-688.9035293 282.6501186 -687.23195589 277.63010337 -685.56030273 272.61010742 C-679.04313442 273.25235413 -673.12032283 275.20275739 -666.91577148 277.23901367 C-665.75226166 277.61576233 -664.58875183 277.99251099 -663.38998413 278.38067627 C-660.18318221 279.42023858 -656.97811473 280.46487195 -653.7736702 281.51166153 C-650.33079933 282.63490942 -646.88575094 283.7514396 -643.44091797 284.86865234 C-637.53464257 286.78500957 -631.62960781 288.70514691 -625.7253418 290.62768555 C-616.64939862 293.58269611 -607.57006602 296.52719893 -598.48999023 299.46948242 C-595.44456727 300.45642207 -592.39916046 301.44341157 -589.35375977 302.43041992 C-588.59590117 302.67603416 -587.83804256 302.92164841 -587.05721855 303.17470551 C-579.25582449 305.70324729 -571.45533685 308.23458061 -563.65488815 310.76603699 C-545.46505167 316.6690794 -527.27295899 322.56513908 -509.07975388 328.45779037 C-506.87112727 329.17315009 -504.66250676 329.8885286 -502.45388794 330.60391235 C-496.5678317 332.51043217 -490.68176467 334.41691869 -484.79566956 336.32331848 C-474.47101494 339.66728783 -464.1464752 343.0116116 -453.82202148 346.35620117 C-453.08948465 346.59350512 -452.35694782 346.83080906 -451.60221291 347.07530403 C-447.90174835 348.27406461 -444.20128573 349.47283114 -440.50082397 350.67160034 C-433.84351489 352.82824078 -427.18618872 354.98482847 -420.52886391 357.14142036 C-416.83100949 358.33931391 -413.13315617 359.53721084 -409.43530273 360.73510742 C-407.95613607 361.2142741 -406.47696941 361.69344077 -404.99780273 362.17260742 C-396.12280532 365.04760658 -396.12280532 365.04760658 -393.90404987 365.76635838 C-392.42489276 366.24552193 -390.94573563 366.72468542 -389.46657848 367.20384884 C-385.76851541 368.40181262 -382.0704527 369.59977753 -378.37239075 370.79774475 C-371.71788939 372.95343336 -365.0633855 375.10911413 -358.40886784 377.26475239 C-354.71325057 378.46189637 -351.01763546 379.65904701 -347.32202148 380.85620117 C-346.22428689 381.2118002 -346.22428689 381.2118002 -345.10437584 381.57458305 C-334.71533824 384.94001196 -324.32642234 388.30581635 -313.93758011 391.6718483 C-307.24934829 393.83885227 -300.56108563 396.00576107 -293.87280273 398.17260742 C-293.13804718 398.41065094 -292.40329163 398.64869446 -291.64627075 398.89395142 C-267.88156717 406.59306496 -244.11466737 414.28537177 -220.34628296 421.97311401 C-204.46063518 427.11125235 -188.57579586 432.25186611 -172.69311523 437.39916992 C-171.94897684 437.64032721 -171.20483845 437.88148449 -170.43815041 438.12994957 C-167.43117776 439.10443721 -164.42420885 440.07893639 -161.4172411 441.05343914 C-159.17326378 441.78066849 -156.92928408 442.5078905 -154.68530273 443.23510742 C-153.95330029 443.47233143 -153.22129784 443.70955544 -152.46711349 443.95396805 C-120.84123694 454.20286147 -89.20314457 464.41372314 -57.56030273 474.61010742 C-57.27998451 473.56299088 -57.27998451 473.56299088 -56.9940033 472.49472046 C-55.44016744 466.7364795 -53.81018388 461.01976277 -52.00170898 455.33666992 C-51.77128403 454.60620453 -51.54085907 453.87573914 -51.30345154 453.12313843 C-50.57857364 450.82648861 -49.85082921 448.53076085 -49.12280273 446.23510742 C-48.16499089 443.20670805 -47.20831572 440.17795014 -46.25170898 437.14916992 C-46.02198395 436.42256165 -45.79225891 435.69595337 -45.55557251 434.94732666 C-43.52324486 428.51191031 -41.53200716 422.06437524 -39.56030273 415.61010742 C-38.90030273 415.61010742 -38.24030273 415.61010742 -37.56030273 415.61010742 C-37.19549805 414.35327148 -36.83069336 413.09643555 -36.45483398 411.80151367 C-33.90869961 403.32281198 -31.05429177 394.94275502 -28.24780273 386.54760742 C-27.78769806 385.16912125 -27.78769806 385.16912125 -27.31829834 383.76278687 C-21.40661325 366.05494721 -15.3871781 348.38482304 -9.33605957 330.72424316 C-7.00443314 323.91589398 -4.68480291 317.10350588 -2.36889648 310.28979492 C-2.01468628 309.24790512 -1.66047607 308.20601532 -1.29553223 307.1325531 C0.09521839 303.04142042 1.48589694 298.95026418 2.87493896 294.85855103 C7.32522331 281.75028079 11.8435103 268.6679606 16.43969727 255.61010742 C15.23192627 255.24828369 15.23192627 255.24828369 13.99975586 254.87915039 C-13.28766633 246.66597609 -13.28766633 246.66597609 -22.98510742 242.15307617 C-27.09221462 240.38054698 -31.25433441 238.92695766 -35.48608398 237.48510742 C-46.12703659 233.80877705 -56.6606016 229.86901124 -67.18530273 225.8737793 C-70.24414461 224.71277356 -73.30445937 223.55571516 -76.36499023 222.39916992 C-78.31819964 221.65980954 -80.27132791 220.92023475 -82.22436523 220.18041992 C-83.13562164 219.83568634 -84.04687805 219.49095276 -84.98574829 219.13577271 C-85.82197723 218.81808929 -86.65820618 218.50040588 -87.51977539 218.1730957 C-88.25443024 217.89442657 -88.98908508 217.61575745 -89.7460022 217.3286438 C-91.56030273 216.61010742 -91.56030273 216.61010742 -93.56030273 215.61010742 C-95.69660292 208.69793222 -93.79087017 202.79380331 -91.36889648 196.26635742 C-90.85541405 194.81440979 -90.85541405 194.81440979 -90.33155823 193.33312988 C-89.23757212 190.25229552 -88.11834012 187.18137106 -86.99780273 184.11010742 C-86.27148583 182.07946736 -85.54686172 180.04822098 -84.82397461 178.01635742 C-83.41461463 174.06087731 -81.99061618 170.11114576 -80.5559082 166.16479492 C-79.27203386 162.62078993 -78.02911563 159.06788946 -76.83422852 155.49291992 C-76.56981461 154.71057983 -76.3054007 153.92823975 -76.03297424 153.12219238 C-75.55080271 151.68802807 -75.07764489 150.2507846 -74.61582947 148.80993652 C-73.23259425 144.72517316 -71.63935525 142.54915516 -68.56030273 139.61010742 C-63.24792375 132.81556823 -60.68613509 124.5767156 -57.77124023 116.57104492 C-57.22258541 115.08464469 -56.67313976 113.59853615 -56.12295532 112.11270142 C-54.67585549 108.1980654 -53.23955838 104.27955178 -51.80554199 100.36010742 C-50.38527244 96.48400074 -48.95480326 92.61166552 -47.52514648 88.73901367 C-45.00130765 81.89868147 -42.48991908 75.05385792 -39.98307228 68.20728302 C-38.15412914 63.21691937 -36.30753795 58.23336003 -34.45239258 53.25268555 C-29.67319933 40.4007425 -25.04830991 27.5937965 -21.43530273 14.36010742 C-20.7071179 11.74971757 -19.97318352 9.14097313 -19.23999023 6.53198242 C-18.93818848 5.43466797 -18.63638672 4.33735352 -18.32543945 3.20678711 C-17.07841578 -1.02529451 -17.07841578 -1.02529451 -14.87280273 -2.57739258 C-9.8551213 -4.34036173 -4.72880703 -1.83503654 0 0 Z " fill="#FFFFFF" transform="translate(746.560302734375,390.389892578125)"/>
<path d="M0 0 C7.61609057 0.5527903 14.47850061 2.92717868 21.6796875 5.34765625 C23.0317645 5.79589543 24.38408074 6.2434135 25.73661804 6.69026184 C28.61598079 7.64289205 31.49386331 8.59981861 34.37063599 9.5602417 C41.24813103 11.85585076 48.13338263 14.12803585 55.01774025 16.40296173 C57.33508115 17.16897692 59.65213881 17.9358442 61.96916199 18.70281982 C74.47502523 22.84013916 87.00914928 26.88404804 99.5625 30.875 C120.14843867 37.42836062 140.70235319 44.07780633 161.25 50.75 C167.63923996 52.82447431 174.0285577 54.89870895 180.41796875 56.97265625 C181.2056451 57.22833815 181.99332146 57.48402004 182.80486679 57.74744987 C198.71816062 62.91251203 214.63876338 68.05473367 230.5625 73.1875 C231.81405884 73.59093628 233.06561768 73.99437256 234.35510254 74.41003418 C239.40484314 76.03777093 244.45458613 77.66550024 249.50436401 79.29312134 C263.48818916 83.80094001 277.46869066 88.31903808 291.44916916 92.83722305 C312.65662425 99.69093915 333.86579813 106.53929229 355.07745743 113.37998581 C376.82436625 120.39329842 398.56950717 127.41205578 420.3125 134.4375 C420.9849387 134.65477123 421.6573774 134.87204247 422.35019302 135.09589767 C433.24917195 138.61747097 444.14802353 142.1394383 455.04685974 145.66145325 C465.26034606 148.9619892 475.47387821 152.26238327 485.6875 155.5625 C486.6965206 155.8885277 486.6965206 155.8885277 487.72592545 156.22114182 C509.41674893 163.22967217 531.10989737 170.23097104 552.80477905 177.22692871 C566.98329308 181.79909264 581.16095284 186.37387337 595.33621216 190.95611954 C597.55542714 191.6734949 599.77465995 192.39081509 601.99389648 193.10812378 C613.73212022 196.90228613 613.73212022 196.90228613 619.11132812 198.64233398 C635.06152907 203.80182947 651.01906421 208.93639398 667 214 C668.24058002 218.31644337 667.67717828 220.99501675 666.29345703 225.22729492 C665.89619415 226.4617485 665.49893127 227.69620209 665.08963013 228.96806335 C664.64598916 230.30563078 664.20204266 231.64309689 663.7578125 232.98046875 C663.30938623 234.35826555 662.86196203 235.73638887 662.41549683 237.11482239 C661.23945051 240.73592604 660.04898815 244.35213396 658.85571289 247.96759033 C657.88258226 250.92396638 656.91949995 253.88356751 655.95697212 256.84340954 C653.97017162 262.95264317 651.97546304 269.05929107 649.96533203 275.16088867 C649.60923859 276.24278976 649.25314514 277.32469086 648.88626099 278.43937683 C648 281 648 281 647 283 C640.33892866 282.35858982 634.27138402 280.31156051 627.93359375 278.23046875 C626.73700134 277.84269257 625.54040894 277.45491638 624.30755615 277.0553894 C621.7124423 276.21439816 619.11852042 275.36986064 616.52548218 274.52249146 C612.36883648 273.1641998 608.20965197 271.81380286 604.05004883 270.46459961 C598.97286515 268.81724578 593.89626732 267.16811043 588.82042217 265.51663685 C580.01463808 262.65182334 571.2043471 259.80122946 562.390625 256.9609375 C561.76194267 256.75832935 561.13326035 256.55572121 560.48552704 256.34697342 C557.32102151 255.32720951 554.15643701 254.30769092 550.99182129 253.28826904 C544.55647944 251.21477361 538.12197809 249.13867403 531.6875 247.0625 C530.72316921 246.75136324 530.72316921 246.75136324 529.73935699 246.43394089 C507.57883816 239.2838747 485.42172473 232.1232617 463.26445007 224.96315002 C453.75583934 221.89045057 444.2471077 218.81812556 434.73828125 215.74609375 C434.06825577 215.52962692 433.39823029 215.3131601 432.707901 215.09013367 C427.97193812 213.56007635 423.23596977 212.03003597 418.5 210.5 C413.08723573 208.751314 407.6744744 207.00261891 402.26171875 205.25390625 C401.59175369 205.03745956 400.92178864 204.82101288 400.23152161 204.5980072 C390.71749163 201.52428107 381.20359439 198.45014437 371.68977737 195.37575912 C365.56404799 193.39624738 359.43828502 191.41683956 353.3125 189.4375 C352.30317917 189.11137222 352.30317917 189.11137222 351.27346802 188.77865601 C330.85087639 182.17988226 310.4262155 175.58754705 290 169 C268.89398534 162.19321465 247.78976054 155.38091527 226.6875 148.5625 C226.0150613 148.34522877 225.3426226 148.12795753 224.64980698 147.90410233 C213.75082805 144.38252903 202.85197647 140.8605617 191.95314026 137.33854675 C171.6609253 130.78102242 151.36843773 124.22434331 131.07512665 117.67021179 C128.9639981 116.98837232 126.85287866 116.30650467 124.74176025 115.62463379 C116.9085209 113.09462156 109.07511274 110.5651333 101.24135303 108.03673267 C97.89694408 106.95730116 94.55258986 105.87770109 91.20840454 104.7975769 C76.82034868 100.15096577 62.42628071 95.52669869 48 91 C45.21995612 97.74412075 42.7304619 104.53514669 40.44750977 111.4621582 C40.11667892 112.45757126 39.78584808 113.45298431 39.44499207 114.4785614 C38.73110976 116.62777707 38.01861324 118.77745345 37.30737495 120.92754555 C36.16804593 124.37139242 35.02480032 127.81391803 33.88059998 131.25614929 C31.03199094 139.82853615 28.18972634 148.40302332 25.34771729 156.9776001 C22.57002579 165.35735138 19.78940073 173.73612028 17.00390625 182.11328125 C16.61758656 183.27528172 16.23126686 184.43728218 15.83324051 185.63449478 C9.11085736 205.8358965 2.17043278 225.95339188 -5 246 C-3.82614746 246.23106445 -2.65229492 246.46212891 -1.44287109 246.70019531 C5.5400549 248.25678926 12.294156 250.57380909 19.0859375 252.796875 C20.55200899 253.27327365 22.01820834 253.74927903 23.48452759 254.22491455 C27.33510661 255.47498287 31.18409675 256.72987139 35.03271484 257.98596191 C41.14262501 259.97897462 47.25516671 261.96391688 53.36716461 263.95051575 C55.56772126 264.6659526 57.76809091 265.38196238 59.96844482 266.09802246 C70.29421294 269.45654544 80.63455414 272.7658569 91 276 C90.41470113 282.70496222 88.71001537 288.67968574 86.62109375 295.0625 C86.28956802 296.09439453 85.9580423 297.12628906 85.61647034 298.18945312 C84.56345295 301.46182083 83.50064059 304.73090888 82.4375 308 C81.71875024 310.22765471 81.0006444 312.45551729 80.28320312 314.68359375 C78.52958077 320.12482379 76.76792088 325.56340001 75 331 C69.69331392 330.45242946 64.98469142 329.54166555 59.89160156 327.87036133 C59.23005569 327.65552094 58.56850983 327.44068054 57.88691711 327.21932983 C55.71923175 326.51359921 53.55501309 325.79780337 51.390625 325.08203125 C49.85836288 324.58146727 48.32586706 324.08161816 46.79315186 323.58244324 C42.76122767 322.26756494 38.73205394 320.94446234 34.70355225 319.61914062 C28.31330425 317.51825459 21.91925422 315.42894695 15.52494812 313.34045029 C13.98132135 312.83622759 12.43779251 312.331705 10.8943634 311.82687759 C-0.68595991 308.04095498 -12.29566056 304.38688563 -24 301 C-24.25691809 302.25831351 -24.51383617 303.51662703 -24.77853966 304.81307125 C-26.00910219 310.33279742 -27.74221203 315.63470968 -29.54336548 320.99085999 C-30.07883234 322.60110547 -30.07883234 322.60110547 -30.62511671 324.24388117 C-31.81693623 327.8242632 -33.01515682 331.40246896 -34.21337891 334.98071289 C-35.07169459 337.55314031 -35.92864899 340.12602067 -36.78565979 342.69888306 C-38.62866758 348.22947553 -40.47495426 353.75896437 -42.3235054 359.28770638 C-44.99615843 367.28123072 -47.66380903 375.27641741 -50.33026187 383.27201181 C-54.6570816 396.24591353 -58.987915 409.21847168 -63.32128906 422.19018555 C-67.52945896 434.78713644 -71.73572816 447.38471935 -75.93945312 459.9831543 C-76.19879629 460.76039563 -76.45813946 461.53763697 -76.72534151 462.33843107 C-78.02644545 466.23782761 -79.32751213 470.13723658 -80.6285603 474.03665173 C-91.41326654 506.35969649 -102.20449351 538.6805608 -113 571 C-117.48271009 572.05105552 -119.95592928 571.67424439 -124.35083008 570.18579102 C-124.96603516 569.98111206 -125.58124023 569.77643311 -126.21508789 569.56555176 C-128.23724073 568.8896506 -130.25319746 568.1969537 -132.26953125 567.50390625 C-133.67450822 567.03060438 -135.0798434 566.55836463 -136.48551941 566.08714294 C-140.17656822 564.84663261 -143.86258339 563.59178139 -147.54772949 562.3338623 C-151.31208408 561.05175393 -155.08102934 559.7832943 -158.84960938 558.51367188 C-166.23762867 556.02243611 -173.62038255 553.51602938 -181 551 C-182.38851884 546.46866281 -181.42995255 543.17216436 -179.93663025 538.84112549 C-179.70234945 538.13074214 -179.46806866 537.42035879 -179.22668844 536.68844867 C-178.43844777 534.30820791 -177.63318323 531.93408785 -176.82788086 529.55957031 C-176.25859138 527.8523216 -175.69035499 526.14472143 -175.12309265 524.4367981 C-173.57508736 519.78619792 -172.01222767 515.14071067 -170.44669032 510.49598789 C-168.7978405 505.5959171 -167.16245489 500.69135621 -165.52552795 495.78729248 C-162.76141493 487.5124598 -159.9886547 479.2405684 -157.2097168 470.97070312 C-153.34159871 459.4595291 -149.48806365 447.94351738 -145.63803279 436.42628336 C-125.31287045 375.63419413 -125.31287045 375.63419413 -116.24280095 349.17267632 C-106.83521315 321.72125265 -97.67416172 294.18726284 -88.49698186 266.65820265 C-87.01673737 262.21797195 -85.53595057 257.77792222 -84.0550518 253.3379097 C-79.12133914 238.54552497 -74.18885045 223.75273295 -69.25799102 208.95939688 C-68.99504393 208.17051564 -68.73209683 207.38163439 -68.46118164 206.56884766 C-68.19789676 205.77895213 -67.93461188 204.98905661 -67.66334867 204.17522486 C-63.40244583 191.39211041 -59.13855085 178.6099963 -54.87329728 165.82833295 C-50.44420814 152.55558377 -46.01745179 139.28205843 -41.5929746 126.00777113 C-39.12875247 118.61477823 -36.66366852 111.22207572 -34.19606209 103.83021164 C-31.43595275 95.56161485 -28.6789257 87.29199593 -25.92602539 79.02099609 C-25.70924805 78.36976594 -25.4924707 77.71853579 -25.26912434 77.04757139 C-18.47452545 56.63036892 -11.82671383 36.16934965 -5.3461237 15.65021324 C-4.91028507 14.27195165 -4.91028507 14.27195165 -4.46564162 12.8658464 C-3.9293576 11.16819287 -3.39465779 9.47003774 -2.86185586 7.77128816 C-1.11021983 2.22043966 -1.11021983 2.22043966 0 0 Z " fill="#FFFFFF" transform="translate(272,47)"/>
<path d="M0 0 C6.91421567 1.57599774 13.60160757 3.73875471 20.33984375 5.9375 C22.19495035 6.53880621 24.05005837 7.14010807 25.90522099 7.74124146 C27.88258335 8.38241918 29.85955224 9.02479732 31.83642578 9.66748047 C38.86638877 11.95247884 45.89983083 14.22673038 52.93359375 16.5 C53.65174129 16.73216217 54.36988884 16.96432434 55.10979843 17.20352173 C69.55178104 21.87074828 84.02126224 26.44804077 98.5 31 C119.0110461 37.4510072 139.48580633 44.00785207 159.94246292 50.62868118 C182.45263004 57.91387205 204.99590368 65.08783921 227.56835938 72.17773438 C238.7452906 75.69069064 249.90751411 79.22748635 261 83 C262.18284213 87.20151591 261.74639077 89.78472277 260.40112305 93.90429688 C259.84010139 95.65135925 259.84010139 95.65135925 259.26774597 97.43371582 C258.85325699 98.6827771 258.43876801 99.93183838 258.01171875 101.21875 C257.58811227 102.52210091 257.16550468 103.82577686 256.74385071 105.12976074 C255.63230469 108.55736801 254.50633788 111.98007299 253.37756348 115.40203857 C252.46078125 118.18928035 251.55408107 120.97974961 250.64795208 123.77046967 C248.771534 129.54898891 246.88705426 135.32489169 244.98706055 141.09570312 C244.65095261 142.11764771 244.31484467 143.13959229 243.96855164 144.19250488 C243.05768948 146.83277822 242.06153857 149.41710837 241 152 C234.72600926 151.35998552 229.04680312 149.56299095 223.0703125 147.59765625 C221.99336121 147.24884903 220.91640991 146.90004181 219.80682373 146.54066467 C217.47180858 145.78386606 215.13760862 145.02454867 212.80413818 144.26300049 C207.11691667 142.40726366 201.42473468 140.56688537 195.73265457 138.72612 C193.75134605 138.08522493 191.77024825 137.44368125 189.78915405 136.80212402 C177.66435263 132.87835382 165.51295006 129.04065984 153.3555603 125.21911621 C127.64603048 117.13731015 101.98866065 108.90083441 76.3480835 100.60351562 C71.67332211 99.0914178 66.99768492 97.58204169 62.32183838 96.07330322 C60.104159 95.35675951 57.88699623 94.638615 55.67034912 93.91888428 C52.5770592 92.91465092 49.48210549 91.91571676 46.38671875 90.91796875 C45.4730806 90.61981766 44.55944244 90.32166656 43.61811829 90.01448059 C42.78467392 89.74697495 41.95122955 89.4794693 41.0925293 89.20385742 C40.36994431 88.9698674 39.64735931 88.73587738 38.90287781 88.49479675 C36.84378435 87.87417152 36.84378435 87.87417152 34 88 C25.58138609 113.63950501 17.19659042 139.28854138 9 165 C3.5725913 182.02419159 -1.93096957 199.02161201 -7.5 216 C-13.42965105 234.07801499 -19.27701216 252.1802853 -25.05712891 270.30664062 C-30.29557724 286.72988405 -35.61609735 303.12476489 -40.98516846 319.5057373 C-47.09577237 338.15388322 -53.09024455 356.83808847 -59.03710938 375.5390625 C-59.52637657 377.07470604 -59.52637657 377.07470604 -60.02552795 378.64137268 C-60.63701062 380.56078995 -61.24713794 382.48063971 -61.85569763 384.40098572 C-62.1249556 385.24568924 -62.39421356 386.09039276 -62.67163086 386.96069336 C-63.02226845 388.06470741 -63.02226845 388.06470741 -63.37998962 389.19102478 C-64 391 -64 391 -65 393 C-63.76306396 393.25185059 -62.52612793 393.50370117 -61.25170898 393.76318359 C-55.37140763 395.07363889 -49.69544942 396.91997162 -43.97265625 398.7890625 C-42.8114476 399.16457245 -41.65023895 399.5400824 -40.45384216 399.92697144 C-37.95641964 400.73508732 -35.45951297 401.54461959 -32.96337891 402.35668945 C-29.01082484 403.64247353 -25.05638658 404.92238952 -21.1015625 406.20117188 C-17.0398192 407.51473263 -12.97813117 408.82845953 -8.91702271 410.14398193 C3.88019404 414.28908313 16.68771504 418.40171004 29.5 422.5 C30.51913483 422.82615295 31.53826965 423.15230591 32.58828735 423.48834229 C51.03822379 429.39142212 69.51005253 435.22352398 88 441 C88.25563721 439.74106934 88.51127441 438.48213867 88.7746582 437.18505859 C90.00501849 431.66514373 91.7678281 426.38231369 93.60546875 421.0390625 C93.96197006 419.99057632 94.31847137 418.94209015 94.68577576 417.86183167 C95.84818867 414.44788566 97.01764026 411.03640062 98.1875 407.625 C98.9935762 405.26351284 99.79940055 402.9019397 100.60498047 400.5402832 C107.96562151 378.99059695 115.45176165 357.48461669 123 336 C110.80403269 331.32985492 98.47280096 327.08354175 86.09765625 322.91796875 C85.29332531 322.64715611 84.48899437 322.37634346 83.66028976 322.09732437 C76.93198607 319.83308389 70.20145196 317.57550075 63.47076416 315.31835938 C58.41333286 313.6221268 53.35670194 311.92354789 48.30114555 310.221735 C45.9509831 309.4316933 43.59967641 308.64512701 41.24830627 307.85868835 C39.81399743 307.37626373 38.37974445 306.89367299 36.94555664 306.41088867 C35.69714493 305.99232101 34.44873322 305.57375336 33.16249084 305.14250183 C30.64687041 304.23369257 28.34536868 303.27208877 26 302 C26.56130884 297.39018793 27.43561124 293.21387 28.93359375 288.82104492 C29.33070557 287.64680466 29.72781738 286.47256439 30.13696289 285.26274109 C30.56614014 284.01459122 30.99531738 282.76644135 31.4375 281.48046875 C31.88257794 280.17263942 32.32714989 278.86463779 32.77124023 277.55647278 C33.69892461 274.82778806 34.6305426 272.1004928 35.56542969 269.37426758 C36.76443596 265.87779606 37.95679401 262.37910578 39.14665222 258.87951183 C40.28317003 255.53744816 41.42258952 252.19637651 42.5625 248.85546875 C42.77977753 248.21810476 42.99705505 247.58074078 43.22091675 246.92406273 C43.83449475 245.12616087 44.45039407 243.32905172 45.06640625 241.53198242 C45.41646729 240.50940842 45.76652832 239.48683441 46.12719727 238.43327332 C47 236 47 236 48 234 C52.79354087 234.57354614 57.10468973 235.54347248 61.671875 237.09790039 C62.61285538 237.4153421 62.61285538 237.4153421 63.57284546 237.73919678 C65.63393662 238.43615972 67.69193651 239.14180817 69.75 239.84765625 C71.20929868 240.34324025 72.66877498 240.83830151 74.12841797 241.33287048 C77.9749079 242.63785064 81.81880055 243.95032467 85.66223145 245.26428223 C88.73292924 246.31275452 91.80534677 247.35612641 94.87789917 248.39914894 C107.51987821 252.69068419 120.15834877 256.98963111 132.75157166 261.42256165 C140.63546803 264.19655542 148.51399633 266.81255442 156.55271912 269.09968567 C165.35065861 271.62736392 173.98726656 274.64605938 182.6418457 277.62109375 C185.58871813 278.63401187 188.53735626 279.64164978 191.48632812 280.6484375 C193.38812378 281.29917838 195.28982017 281.95020946 197.19140625 282.6015625 C198.05923233 282.89850006 198.92705841 283.19543762 199.82118225 283.50137329 C204.91376266 285.25319336 209.96596658 287.08624723 215 289 C214.45156113 296.46381174 212.16850929 303.0776731 209.73828125 310.125 C209.30507854 311.39782628 208.87248866 312.67086129 208.44047546 313.9440918 C207.5347314 316.60839285 206.62401831 319.2709204 205.70922852 321.93212891 C204.55369674 325.29385006 203.40688952 328.65845824 202.26332378 332.02426624 C198.13996281 344.15719752 193.97496293 356.26344738 189.40258789 368.23583984 C186.74666925 375.27178766 184.401482 382.42235493 181.99642944 389.54684448 C180.35561389 394.40580959 178.70558143 399.26163888 177.0546875 404.1171875 C176.71626328 405.11264084 176.37783905 406.10809418 176.02915955 407.13371277 C172.63914222 417.08841954 169.16771558 427.01404857 165.6875 436.9375 C159.07219279 455.80268767 152.63344292 474.7258895 146.25268555 493.67163086 C142.02813809 506.19016803 137.65049343 518.63307769 133 531 C127.13616099 530.36711542 121.84729412 528.82836077 116.25390625 526.9921875 C115.28455643 526.67924744 114.3152066 526.36630737 113.31648254 526.04388428 C111.19111951 525.3570409 109.06659594 524.6675958 106.94281006 523.97589111 C102.25764578 522.45003827 97.56845776 520.93672096 92.87957764 519.42233276 C90.32699444 518.59773301 87.77459728 517.77258086 85.22247314 516.94656372 C75.33919829 513.74874176 65.44715181 510.57891901 55.55078125 507.421875 C54.81102491 507.18587271 54.07126858 506.94987041 53.30909538 506.70671654 C49.52818086 505.50061011 45.74715821 504.29484302 41.96609497 503.08920288 C18.00760118 495.44911893 -5.94097245 487.77889589 -29.875 480.0625 C-71.55647589 466.62430904 -113.2767787 453.3079197 -155 440 C-156.21840656 435.72579913 -155.70355288 433.0770083 -154.34106445 428.88378906 C-153.95348465 427.67192932 -153.56590485 426.46006958 -153.1665802 425.21148682 C-152.73253835 423.89607042 -152.29809518 422.58078638 -151.86328125 421.265625 C-151.42213729 419.90456541 -150.98189996 418.54321167 -150.54252625 417.18157959 C-149.61901103 414.32794326 -148.68771426 411.47701145 -147.75024414 408.62792969 C-146.55650761 404.99944039 -145.37729193 401.3664511 -144.20336628 397.73151016 C-143.29377818 394.91780554 -142.37883428 392.10586657 -141.46208763 389.294487 C-141.02612462 387.9569696 -140.59120544 386.61911144 -140.15740395 385.28089142 C-138.03052919 378.73519549 -135.82016085 372.36261977 -132.92530823 366.11752319 C-131.20860431 362.18892919 -129.98320664 358.10006868 -128.70703125 354.01171875 C-128.25253853 352.57938652 -128.25253853 352.57938652 -127.78886414 351.11811829 C-127.13490867 349.0559123 -126.4831894 346.99299609 -125.83349609 344.92944336 C-124.06295299 339.30748213 -122.27483551 333.69110833 -120.48828125 328.07421875 C-120.1182901 326.90970184 -119.74829895 325.74518494 -119.36709595 324.54537964 C-115.48350512 312.33988364 -111.49577057 300.16913118 -107.5 288 C-101.92952419 271.02209284 -96.42748599 254.0241519 -91 237 C-85.57250965 219.9758344 -80.06903062 202.97838858 -74.5 186 C-68.57034895 167.92198501 -62.72298784 149.8197147 -56.94287109 131.69335938 C-51.38305819 114.26259459 -45.73970854 96.86050426 -40.01953125 79.48168945 C-36.48425751 68.72278298 -33.03313079 57.94326594 -29.68359375 47.125 C-28.6134725 43.69315173 -27.54209935 40.26169644 -26.47045898 36.83032227 C-25.78996041 34.63635367 -25.11628137 32.44025647 -24.44995117 30.24194336 C-23.52384706 27.18704841 -22.57473198 24.14014258 -21.62109375 21.09375 C-21.35807968 20.20220215 -21.09506561 19.3106543 -20.82408142 18.39208984 C-17.54772326 8.10276753 -11.82635891 -1.29499582 0 0 Z " fill="#FFFFFF" transform="translate(436,217)"/>
</svg>
